<svg width="24" height="25" viewBox="0 0 24 25" fill="none" xmlns="http://www.w3.org/2000/svg">
<path d="M12.3856 8.82871C13.6501 7.54443 14.2318 5.84918 14.1054 4.15393L15.648 5.72075L18.7081 8.82871C20.4531 10.601 20.4531 13.4778 18.7081 15.2501L11.3235 22.7503C9.57849 24.5226 6.74603 24.5226 5.00104 22.7503C3.25604 20.978 3.25604 18.1012 5.00104 16.3289L12.3856 8.82871Z" fill="#FF4200"/>
<path d="M11.3235 1.32923C13.0685 3.10154 13.0685 5.97833 11.3235 7.75063L8.16226 10.9613L5.00104 7.75063C3.25604 5.97833 3.25604 3.10154 5.00104 1.32923C6.74603 -0.443077 9.57849 -0.443077 11.3235 1.32923Z" fill="#8F00FF"/>
</svg>
