<svg width="48" height="48" viewBox="0 0 48 48" fill="none" xmlns="http://www.w3.org/2000/svg">
<rect width="48" height="48" rx="24" fill="#8D30FF"/>
<g clip-path="url(#clip0_490_423)">
<path d="M23.0114 19.3859L14.4114 27.509C14.2817 27.6281 14.1782 27.7727 14.1074 27.9339C14.0366 28.095 14 28.2691 14 28.4452C14 28.6212 14.0366 28.7953 14.1074 28.9565C14.1782 29.1176 14.2817 29.2623 14.4114 29.3813C14.681 29.6309 15.0348 29.7695 15.4022 29.7695C15.7696 29.7695 16.1234 29.6309 16.393 29.3813L24.0022 22.1921L31.6114 29.3798C31.8811 29.6286 32.2345 29.7667 32.6014 29.7667C32.9683 29.7667 33.3218 29.6286 33.5914 29.3798C33.7206 29.2606 33.8238 29.116 33.8943 28.955C33.9649 28.794 34.0013 28.6202 34.0013 28.4444C34.0013 28.2686 33.9649 28.0948 33.8943 27.9338C33.8238 27.7728 33.7206 27.6282 33.5914 27.509L24.9914 19.3859C24.7231 19.1356 24.3692 18.9975 24.0022 18.9998C23.6347 18.9972 23.2802 19.1354 23.0114 19.3859Z" fill="white"/>
</g>
<defs>
<clipPath id="clip0_490_423">
<rect width="20" height="20" fill="white" transform="translate(14 14)"/>
</clipPath>
</defs>
</svg>
